<?xml version="1.0" encoding="utf-8"?>
<!DOCTYPE svg PUBLIC "-//W3C//DTD SVG 1.1//EN" "http://www.w3.org/Graphics/SVG/1.1/DTD/svg11.dtd">
<svg version="1.1" id="teato" xmlns="http://www.w3.org/2000/svg" xmlns:xlink="http://www.w3.org/1999/xlink" x="0px" y="0px"
	 width="30.4px" height="40.1px" viewBox="0 0 30.4 40.1" enable-background="new 0 0 30.4 40.1" xml:space="preserve">
<g id="teato-flask_group">
	<g id="flask">
		<circle id="flask-3" fill="#38353B" cx="15.2" cy="24.9" r="15.2"/>
		<path id="flask-2" fill="#38353B" d="M20.3,13.9c0,0.6-0.5,1.1-1.1,1.1h-7.9c-0.6,0-1.1-0.5-1.1-1.1V3c0-0.6,0.5-1.1,1.1-1.1h7.9
			c0.6,0,1.1,0.5,1.1,1.1V13.9z"/>
		<path fill="#38353B" d="M21.7,0.8c0-0.4-0.4-0.8-0.8-0.8H9.6C9.1,0,8.8,0.4,8.8,0.8v1.5c0,0.4,0.4,0.8,0.8,0.8h11.3
			c0.4,0,0.8-0.4,0.8-0.8V0.8z"/>
	</g>
	<g id="content">
		<g id="water">
			<path fill="#FFFFFF" d="M27.4,30.7c-2.2,4.6-6.8,7.7-12.2,7.7c-5.4,0-10.1-3.2-12.3-7.8c0.3,0.5,0.8,0.8,1.4,0.8
				c0.9,0,1.6-0.7,1.6-1.6c0,0.9,0.7,1.6,1.6,1.6c0.9,0,1.6-0.7,1.6-1.6c0,0.9,0.7,1.6,1.6,1.6s1.6-0.7,1.6-1.6
				c0,0.9,0.7,1.6,1.6,1.6s1.6-0.7,1.6-1.6c0,0.9,0.7,1.6,1.6,1.6c0.9,0,1.6-0.7,1.6-1.6c0,0.9,0.7,1.6,1.6,1.6s1.6-0.7,1.6-1.6
				c0,0.9,0.7,1.6,1.6,1.6s1.6-0.7,1.6-1.6c0,0.9,0.7,1.6,1.6,1.6C26.7,31.5,27.2,31.2,27.4,30.7z"/>
			<path fill="#52BA42" d="M5.2,32.3c0,0,8.5,11.6,20.8,0C26,32.3,15,42.1,5.2,32.3z"/>
		</g>
	</g>
	<g id="TEA_TO_1_" display="none">

			<text transform="matrix(1 0 0 1 3.8423 28.6475)" display="inline" fill="#FFFFFF" font-family="'BankGothic-Medium'" font-size="5.6037">TEA TO</text>
	</g>
	<g id="TEA_TO_2_">
		<text transform="matrix(1 0 0 1 2.1816 26.5366)" fill="#FFFFFF" font-family="'BankGothic-Medium'" font-size="9.782">T.T.O</text>
	</g>
</g>
</svg>
