<?xml version="1.0" encoding="utf-8"?>
<!-- Generator: Adobe Illustrator 16.0.0, SVG Export Plug-In . SVG Version: 6.00 Build 0)  -->
<!DOCTYPE svg PUBLIC "-//W3C//DTD SVG 1.1//EN" "http://www.w3.org/Graphics/SVG/1.1/DTD/svg11.dtd">
<svg version="1.1" id="Calque_1" xmlns="http://www.w3.org/2000/svg" xmlns:xlink="http://www.w3.org/1999/xlink" x="0px" y="0px"
	 width="407.372px" height="253.7px" viewBox="0 0 407.372 253.7" enable-background="new 0 0 407.372 253.7" xml:space="preserve">
<g>
	<g>
		<path fill="#39363C" d="M253.714,121.879L248.72,91.85l-37.322-2.938c-3.837-8.668-8.912-16.576-14.973-23.544l14.284-31.355
			l-24.778-17.722l-26.765,22.875c-8.094-3.156-16.677-5.212-25.542-6.015L121.21,0L91.176,4.995L88.404,40.19
			c-8.995,3.776-17.211,8.862-24.446,15.004l-31.842-14.49L14.403,65.484L37.3,92.279c-3.491,8.738-5.679,18.069-6.411,27.705
			L0,131.551l4.994,30.029l33.164,2.615c3.709,8.748,8.677,16.77,14.646,23.844l-14.668,32.188l24.772,17.713l26.993-23.051
			c9.098,3.656,18.837,5.904,28.903,6.568l12.073,32.242l30.035-4.996l2.778-35.285c8.421-3.775,16.132-8.707,22.957-14.584
			l31.69,14.434l17.724-24.771l-23.025-26.951c3.313-8.461,5.428-17.455,6.163-26.744L253.714,121.879z M136.704,189.747
			c-33.965,5.65-66.081-17.314-71.729-51.277c-5.65-33.968,17.304-66.084,51.27-71.733c33.967-5.65,66.086,17.307,71.737,51.276
			C193.63,151.973,170.671,184.098,136.704,189.747z"/>
	</g>
	<g>
		<path fill="#52BA42" d="M407.372,153.768v-20.475l-24.436-6.068c-1.587-6.177-4.091-11.987-7.337-17.288l12.933-19.222
			l-14.487-14.5l-20.282,12.223c-5.027-2.988-10.496-5.292-16.287-6.808l-4.578-23.369h-20.48l-5.724,23.05
			c-6.387,1.516-12.405,3.982-17.887,7.263l-19.524-13.137l-14.491,14.488l12.242,20.313c-3.278,5.42-5.77,11.366-7.323,17.681
			l-21.767,4.258v20.492l21.719,5.381c1.497,6.225,3.908,12.088,7.085,17.443l-13.288,19.756l14.488,14.48l20.458-12.318
			c5.632,3.428,11.851,5.994,18.45,7.539l4.456,22.742h20.483l5.74-23.113c6.005-1.574,11.672-3.996,16.839-7.15l19.438,13.078
			l14.492-14.473l-12.3-20.422c3.134-5.262,5.523-10.994,7.047-17.078L407.372,153.768z M322.239,185.893
			c-23.166,0-41.938-18.785-41.938-41.947c0-23.162,18.772-41.947,41.938-41.947c23.158,0,41.943,18.785,41.943,41.947
			C364.183,167.108,345.397,185.893,322.239,185.893z"/>
	</g>
</g>
</svg>
