<?xml version="1.0" encoding="utf-8"?>
<!DOCTYPE svg PUBLIC "-//W3C//DTD SVG 1.1//EN" "http://www.w3.org/Graphics/SVG/1.1/DTD/svg11.dtd">
<svg version="1.1" id="Calque_1" xmlns="http://www.w3.org/2000/svg" xmlns:xlink="http://www.w3.org/1999/xlink" x="0px" y="0px"
	 width="366.434px" height="366.414px" viewBox="0 0 366.434 366.414" enable-background="new 0 0 366.434 366.414"
	 xml:space="preserve">
<g>
	<g>
		<path fill="#39363C" d="M366.434,176.028l-7.213-43.371l-53.903-4.243c-5.542-12.52-12.872-23.941-21.625-34.005l20.63-45.286
			l-35.786-25.595L229.88,56.565c-11.689-4.558-24.086-7.527-36.89-8.687L175.062,0l-43.378,7.215l-4.003,50.832
			c-12.992,5.454-24.857,12.8-35.308,21.67L46.383,58.789L20.802,94.578l33.069,38.7c-5.042,12.621-8.202,26.098-9.259,40.014
			L0,189.998l7.213,43.371l47.898,3.777c5.357,12.635,12.532,24.22,21.152,34.437L55.079,318.07l35.778,25.582l38.986-33.292
			c13.141,5.281,27.206,8.528,41.744,9.487l17.437,46.566l43.379-7.216l4.012-50.962c12.162-5.452,23.3-12.575,33.155-21.063
			l45.771,20.847l25.598-35.777l-33.255-38.925c4.785-12.22,7.839-25.21,8.901-38.626L366.434,176.028z M197.438,274.048
			c-49.055,8.161-95.439-25.007-103.597-74.059c-8.16-49.06,24.991-95.444,74.048-103.603c49.059-8.16,95.447,24.996,103.608,74.057
			C279.656,219.492,246.498,265.89,197.438,274.048z"/>
	</g>
</g>
</svg>
