<?xml version="1.0" encoding="utf-8"?>
<!DOCTYPE svg PUBLIC "-//W3C//DTD SVG 1.1//EN" "http://www.w3.org/Graphics/SVG/1.1/DTD/svg11.dtd">
<svg version="1.1" id="teato" xmlns="http://www.w3.org/2000/svg" xmlns:xlink="http://www.w3.org/1999/xlink" x="0px" y="0px"
	 width="12.1px" height="16px" viewBox="0 0 12.1 16" enable-background="new 0 0 12.1 16" xml:space="preserve">
<g id="teato-flask_group">
	<g id="flask">
		<circle id="flask-3" fill="#FFFFFF" cx="6.1" cy="9.9" r="6.1"/>
		<path id="flask-2" fill="#FFFFFF" d="M8.1,5.6C8.1,5.8,7.9,6,7.7,6H4.5C4.3,6,4.1,5.8,4.1,5.6V1.2c0-0.2,0.2-0.4,0.4-0.4h3.2
			c0.2,0,0.4,0.2,0.4,0.4V5.6z"/>
		<path fill="#FFFFFF" d="M8.6,0.3C8.6,0.1,8.5,0,8.3,0H3.8C3.6,0,3.5,0.1,3.5,0.3v0.6c0,0.2,0.1,0.3,0.3,0.3h4.5
			c0.2,0,0.3-0.1,0.3-0.3V0.3z"/>
	</g>
	<g id="content">
		<g id="water">
			<path fill="#38353B" d="M11,12.3c-0.9,1.8-2.7,3.1-4.9,3.1c-2.2,0-4-1.3-4.9-3.1c0.1,0.2,0.3,0.3,0.5,0.3c0.3,0,0.6-0.3,0.6-0.6
				c0,0.3,0.3,0.6,0.6,0.6c0.3,0,0.6-0.3,0.6-0.6c0,0.3,0.3,0.6,0.6,0.6c0.3,0,0.6-0.3,0.6-0.6c0,0.3,0.3,0.6,0.6,0.6
				s0.6-0.3,0.6-0.6c0,0.3,0.3,0.6,0.6,0.6c0.3,0,0.6-0.3,0.6-0.6c0,0.3,0.3,0.6,0.6,0.6c0.3,0,0.6-0.3,0.6-0.6
				c0,0.3,0.3,0.6,0.6,0.6s0.6-0.3,0.6-0.6c0,0.3,0.3,0.6,0.6,0.6C10.6,12.6,10.8,12.4,11,12.3z"/>
			<path fill="#38353B" d="M2.1,12.9c0,0,3.4,4.6,8.3,0C10.4,12.9,6,16.8,2.1,12.9z"/>
		</g>
	</g>
	<g id="TEA_TO_1_" display="none">

			<text transform="matrix(1 0 0 1 1.5337 11.4346)" display="inline" fill="#FFFFFF" font-family="'BankGothic-Medium'" font-size="2.2367">TEA TO</text>
	</g>
	<g id="TEA_TO_2_">
		<text transform="matrix(1 0 0 1 3.8022 10.3047)" fill="#38353B" font-family="'BankGothic-Medium'" font-size="7.2414">T</text>
	</g>
</g>
</svg>
