<?xml version="1.0" encoding="utf-8"?>
<!-- Generator: Adobe Illustrator 16.0.0, SVG Export Plug-In . SVG Version: 6.00 Build 0)  -->
<!DOCTYPE svg PUBLIC "-//W3C//DTD SVG 1.1//EN" "http://www.w3.org/Graphics/SVG/1.1/DTD/svg11.dtd">
<svg version="1.1" id="teato-flask" xmlns="http://www.w3.org/2000/svg" xmlns:xlink="http://www.w3.org/1999/xlink" x="0px"
	 y="0px" width="460.509px" height="607.565px" viewBox="0 0 460.509 607.565" enable-background="new 0 0 460.509 607.565"
	 xml:space="preserve">
<g id="teato-flask_group">
	<g id="flask">
		<path id="flask-3" fill="#39363C" d="M460.509,377.31c0,127.164-103.091,230.255-230.254,230.255
			C103.088,607.565,0,504.474,0,377.31c0-127.167,103.088-230.255,230.255-230.255C357.418,147.055,460.509,250.143,460.509,377.31z
			"/>
		<path id="flask-2" fill="#39363C" d="M307.863,210.968c0,9.376-7.603,16.978-16.98,16.978H170.778
			c-9.376,0-16.978-7.602-16.978-16.978V45.275c0-9.378,7.601-16.978,16.978-16.978h120.105c9.378,0,16.98,7.6,16.98,16.978V210.968
			z"/>
		<path fill="#39363C" d="M328.159,12c0-6.627-5.373-12-12-12H144.931c-6.627,0-12,5.373-12,12v23.162c0,6.627,5.373,12,12,12
			h171.228c6.627,0,12-5.373,12-12V12z"/>
	</g>
	<g id="content">
		<g id="water">
			<path fill="#FFFFFF" d="M415.895,465.225c-32.94,69.431-103.69,117.44-185.64,117.44c-82.08,0-152.9-48.15-185.78-117.74
				c4.07,7.08,11.72,11.84,20.47,11.84c13.05,0,23.62-10.569,23.62-23.609c0,13.04,10.57,23.609,23.62,23.609
				c13.04,0,23.62-10.569,23.62-23.609c0,13.04,10.57,23.609,23.61,23.609c13.05,0,23.62-10.569,23.62-23.609
				c0,13.04,10.58,23.609,23.62,23.609s23.62-10.569,23.62-23.609c0,13.04,10.57,23.609,23.62,23.609
				c13.04,0,23.609-10.569,23.609-23.609c0,13.04,10.58,23.609,23.62,23.609c13.05,0,23.62-10.569,23.62-23.609
				c0,13.04,10.57,23.609,23.62,23.609c13.04,0,23.62-10.569,23.62-23.609c0,13.04,10.57,23.609,23.61,23.609
				C404.234,476.765,411.784,472.135,415.895,465.225z"/>
			<path fill="#54BB41" d="M78.343,488.908c0,0,128.283,175.283,315.979,0C394.322,488.908,227.688,637.546,78.343,488.908z"/>
		</g>
	</g>
	<g id="bulls">
		<g id="bull-4">
			<circle fill="#FFFFFF" cx="269.688" cy="249.646" r="24.406"/>
			<path fill="#54BB41" d="M290.558,242.217c0,0-0.709,42.445-37.495,22.637C253.062,264.854,283.483,274.758,290.558,242.217z"/>
		</g>
		<g id="bull-3">
			<circle fill="#FFFFFF" cx="207.096" cy="147.23" r="18.038"/>
			<path fill="#54BB41" d="M222.521,141.739c0,0-0.521,31.373-27.711,16.732C194.81,158.471,217.293,165.792,222.521,141.739z"/>
		</g>
		<g id="bull-2">
			<path fill="#FFFFFF" d="M253.546,95.628c0,5.665-4.594,10.258-10.26,10.258c-5.662,0-10.256-4.593-10.256-10.258
				c0-5.664,4.594-10.257,10.256-10.257C248.952,85.371,253.546,89.964,253.546,95.628z"/>
			<path fill="#54BB41" d="M252.06,92.506c0,0-0.297,17.839-15.76,9.514C236.3,102.02,249.085,106.183,252.06,92.506z"/>
		</g>
	</g>
	<g id="TEA_TO_1_" display="none">
		
			<text transform="matrix(1 0 0 1 58.231 434.1772)" display="inline" fill="#FFFFFF" font-family="'BankGothic-Medium'" font-size="84.9312">TEA TO</text>
	</g>
	<g id="TEA_TO">
		<g>
			<path fill="#FFFFFF" d="M83.825,398.167v36.011H73.634v-36.011H53.505v-7.814h50.534v7.814H83.825z"/>
			<path fill="#FFFFFF" d="M116.524,434.177v-43.825h44.844v7.475h-34.652v9.768h20.213v7.474h-20.213v10.871h35.077v8.238H116.524z
				"/>
			<path fill="#FFFFFF" d="M172.238,434.177l24.8-43.825h9.852l25.141,43.825h-11.467l-5.266-9.597h-27.771l-5.097,9.597H172.238z
				 M191.856,416.682h19.195l-9.428-17.836L191.856,416.682z"/>
			<path fill="#FFFFFF" d="M299.379,398.167v36.011h-10.192v-36.011h-20.128v-7.814h50.533v7.814H299.379z"/>
			<path fill="#FFFFFF" d="M331.143,400.714c0-4.077,0.765-6.822,2.293-8.238c1.529-1.415,4.388-2.124,8.578-2.124h32.274
				c4.189,0,7.049,0.709,8.578,2.124c1.528,1.416,2.293,4.161,2.293,8.238v23.101c0,4.078-0.765,6.824-2.293,8.239
				c-1.529,1.415-4.389,2.123-8.578,2.123h-32.274c-4.19,0-7.049-0.708-8.578-2.123c-1.528-1.415-2.293-4.161-2.293-8.239V400.714z
				 M341.335,425.939h33.633v-27.772h-33.633V425.939z"/>
		</g>
		<circle fill="#FFFFFF" cx="316.864" cy="430.427" r="3.75"/>
		<circle fill="#FFFFFF" cx="399.072" cy="430.427" r="3.75"/>
	</g>
</g>
</svg>
