<?xml version="1.0" encoding="utf-8"?>
<!-- Generator: Adobe Illustrator 16.0.0, SVG Export Plug-In . SVG Version: 6.00 Build 0)  -->
<!DOCTYPE svg PUBLIC "-//W3C//DTD SVG 1.1//EN" "http://www.w3.org/Graphics/SVG/1.1/DTD/svg11.dtd">
<svg version="1.1" id="Calque_1" xmlns="http://www.w3.org/2000/svg" xmlns:xlink="http://www.w3.org/1999/xlink" x="0px" y="0px"
	 width="392.811px" height="345.267px" viewBox="0 0 392.811 345.267" enable-background="new 0 0 392.811 345.267"
	 xml:space="preserve">
<g>
	<path fill="#38353B" d="M166.942,0h12.648c38.364,0,75.671,15.598,111.926,46.792c35.835,36.679,53.751,78.626,53.751,125.841
		c0,53.541-22.556,99.28-67.664,137.223c-32.881,23.605-68.082,35.41-105.602,35.41c-49.324,0-92.536-19.602-129.634-58.806
		c-28.246-34.992-42.367-70.616-42.367-106.87v-12.648c0-43,17.705-83.051,53.117-120.15c0.844,0,5.271-3.793,13.279-11.382
		C99.702,11.805,133.216,0,166.942,0z"/>
	<path fill="#FFFFFF" d="M8.222,172.634c0,46.797,18.338,87.476,55.014,122.046c32.462,27.821,68.506,41.735,108.135,41.735h1.896
		c50.168,0,92.958-21.081,128.368-63.235c23.187-30.354,34.781-63.658,34.781-99.916v-1.898c0-42.997-16.02-81.356-48.062-115.088
		c-33.724-32.038-72.508-48.06-116.352-48.06c-50.589,0-93.378,20.87-128.368,62.606C20.024,101.6,8.222,135.536,8.222,172.634z"/>
	<path fill="#38353B" d="M36.677,111.93h1.266l70.191,193.502h-0.633c-29.089-13.491-52.064-36.257-68.927-68.296
		c-9.696-21.922-14.544-43.635-14.544-65.134C24.03,152.609,28.245,132.583,36.677,111.93z"/>
	<path fill="#38353B" d="M172.634,24.03c37.519,0,70.826,13.067,99.913,39.205v0.63l-1.898-0.63c-11.804,0-20.021,7.167-24.661,21.5
		v5.689c0,8.432,5.904,21.505,17.705,39.21c5.902,11.378,8.854,23.606,8.854,36.674c0,10.961-5.271,31.409-15.81,61.34
		l-10.116,34.782c-0.845,0-6.324-15.811-16.442-47.43L192.236,102.44h0.633c14.754,0,22.132-1.898,22.132-5.688v-1.9
		c-0.843-2.951-2.316-4.637-4.426-5.057l-41.104,1.897l-41.736-1.897c-2.107,1.264-3.16,3.158-3.16,5.688h-0.633
		c0,4.641,6.113,6.956,18.339,6.956l3.161,0.633l22.766,63.869l-32.251,96.753h-0.632L81.574,103.073v-0.633h0.632
		c14.334,0,21.5-1.686,21.5-5.058v-1.898c0-2.53-1.475-4.425-4.426-5.688l-48.059,1.897h-2.529v-1.269
		c4.216-7.588,14.122-18.549,29.72-32.882C106.658,35.199,138.065,24.03,172.634,24.03z"/>
	<path fill="#38353B" d="M174.53,184.647c0.844,0,6.748,15.812,17.706,47.429l29.725,80.309h-0.637
		c-16.439,5.481-32.88,8.22-49.322,8.22c-14.757,0-28.667-2.105-41.735-6.321L174.53,184.647z"/>
	<path fill="#38353B" d="M301.635,101.177h1.265c11.804,23.607,17.708,47.424,17.708,71.457c0,43.003-16.863,80.101-50.591,111.296
		c-8.011,6.747-15.601,12.226-22.767,16.441h-0.629v-0.635l51.853-151.136c2.95-12.221,4.426-22.973,4.426-32.246L301.635,101.177z"
		/>
</g>
<g id="teato-flask_group">
	<g id="flask">
		<circle id="flask-3" fill="#39363C" cx="341.042" cy="293.498" r="51.768"/>
		<path id="flask-2" fill="#39363C" d="M358.491,256.1c0,2.107-1.71,3.816-3.818,3.816H327.67c-2.108,0-3.817-1.709-3.817-3.816
			v-37.254c0-2.108,1.709-3.817,3.817-3.817h27.003c2.108,0,3.818,1.709,3.818,3.817V256.1z"/>
		<path fill="#39363C" d="M363.054,211.364c0-1.489-1.207-2.697-2.697-2.697h-38.498c-1.49,0-2.697,1.208-2.697,2.697v5.208
			c0,1.49,1.207,2.698,2.697,2.698h38.498c1.49,0,2.697-1.208,2.697-2.698V211.364z"/>
	</g>
	<g id="content">
		<g id="water">
			<path fill="#FFFFFF" d="M382.78,313.265c-7.406,15.61-23.313,26.404-41.738,26.404c-18.454,0-34.377-10.826-41.77-26.473
				c0.915,1.592,2.635,2.662,4.603,2.662c2.935,0,5.311-2.376,5.311-5.309c0,2.933,2.376,5.309,5.311,5.309
				c2.932,0,5.311-2.376,5.311-5.309c0,2.933,2.376,5.309,5.308,5.309c2.935,0,5.311-2.376,5.311-5.309
				c0,2.933,2.379,5.309,5.311,5.309s5.311-2.376,5.311-5.309c0,2.933,2.377,5.309,5.311,5.309c2.933,0,5.309-2.376,5.309-5.309
				c0,2.933,2.379,5.309,5.311,5.309c2.934,0,5.311-2.376,5.311-5.309c0,2.933,2.377,5.309,5.311,5.309
				c2.932,0,5.311-2.376,5.311-5.309c0,2.933,2.377,5.309,5.309,5.309C380.158,315.858,381.856,314.817,382.78,313.265z"/>
			<path fill="#54BB41" d="M306.888,318.588c0,0,28.842,39.41,71.041,0C377.929,318.588,340.465,352.007,306.888,318.588z"/>
		</g>
	</g>
	<g id="TEA_TO_1_" display="none">
		
			<text transform="matrix(1 0 0 1 302.3662 306.2842)" display="inline" fill="#FFFFFF" font-family="'BankGothic-Medium'" font-size="19.0952">TEA TO</text>
	</g>
	<g id="TEA_TO">
		<g>
			<path fill="#FFFFFF" d="M308.12,298.188v8.096h-2.291v-8.096h-4.526v-1.758h11.362v1.758H308.12z"/>
			<path fill="#FFFFFF" d="M315.472,306.283v-9.854h10.082v1.681h-7.791v2.197h4.545v1.68h-4.545v2.444h7.887v1.852H315.472z"/>
			<path fill="#FFFFFF" d="M327.998,306.283l5.576-9.854h2.214l5.653,9.854h-2.578l-1.185-2.157h-6.244l-1.145,2.157H327.998z
				 M332.409,302.35h4.315l-2.12-4.01L332.409,302.35z"/>
			<path fill="#FFFFFF" d="M356.583,298.188v8.096h-2.291v-8.096h-4.525v-1.758h11.361v1.758H356.583z"/>
			<path fill="#FFFFFF" d="M363.726,298.761c0-0.917,0.171-1.534,0.515-1.854c0.344-0.317,0.986-0.478,1.929-0.478h7.257
				c0.941,0,1.584,0.16,1.929,0.478c0.344,0.319,0.515,0.937,0.515,1.854v5.193c0,0.917-0.171,1.534-0.515,1.852
				c-0.345,0.318-0.987,0.478-1.929,0.478h-7.257c-0.942,0-1.585-0.159-1.929-0.478c-0.344-0.317-0.515-0.935-0.515-1.852V298.761z
				 M366.017,304.432h7.562v-6.244h-7.562V304.432z"/>
		</g>
		<circle fill="#FFFFFF" cx="360.515" cy="305.44" r="0.844"/>
		<circle fill="#FFFFFF" cx="378.998" cy="305.44" r="0.843"/>
	</g>
</g>
</svg>
