<?xml version="1.0" encoding="utf-8"?>
<!DOCTYPE svg PUBLIC "-//W3C//DTD SVG 1.1//EN" "http://www.w3.org/Graphics/SVG/1.1/DTD/svg11.dtd">
<svg version="1.1" id="Calque_1" xmlns="http://www.w3.org/2000/svg" xmlns:xlink="http://www.w3.org/1999/xlink" x="0px" y="0px"
	 width="283.9px" height="283.906px" viewBox="0 0 283.9 283.906" enable-background="new 0 0 283.9 283.906" xml:space="preserve">
<g>
	<g>
		<path fill="#52BA42" d="M283.9,160.034v-34.308l-40.945-10.167c-2.659-10.35-6.854-20.086-12.294-28.969l21.671-32.209
			l-24.275-24.297L194.07,50.564c-8.424-5.006-17.587-8.867-27.291-11.407L159.108,0h-34.317L115.2,38.624
			c-10.702,2.54-20.787,6.672-29.972,12.17L52.512,28.781L28.23,53.057l20.513,34.038c-5.493,9.082-9.667,19.045-12.271,29.627
			L0,123.857v34.337l36.393,9.016c2.508,10.43,6.548,20.255,11.872,29.229l-22.266,33.104l24.277,24.264l34.28-20.641
			c9.438,5.744,19.857,10.044,30.916,12.633l7.467,38.107h34.322l9.619-38.729c10.062-2.638,19.558-6.696,28.216-11.981
			l32.569,21.914l24.284-24.251l-20.61-34.219c5.251-8.817,9.255-18.422,11.808-28.617L283.9,160.034z M141.249,213.863
			c-38.817,0-70.273-31.477-70.273-70.288c0-38.81,31.456-70.287,70.273-70.287c38.805,0,70.282,31.477,70.282,70.287
			C211.531,182.386,180.053,213.863,141.249,213.863z"/>
	</g>
</g>
</svg>
